<svg width="152" height="28" viewBox="0 0 152 28" fill="none" xmlns="http://www.w3.org/2000/svg">
<g clip-path="url(#clip0_1141_21181)">
<g clip-path="url(#clip1_1141_21181)">
<path d="M57.1823 5.98151C53.5798 5.98151 50.9922 8.76767 50.9922 12.0395C50.9922 15.3369 53.453 18.0719 57.1823 18.0719C60.9116 18.0719 63.3724 15.3369 63.3724 12.0395C63.3724 8.79323 60.7847 5.98151 57.1823 5.98151ZM57.1823 16.2059C54.9752 16.2059 53.0978 14.2633 53.0978 12.0395C53.0978 9.63674 55.0005 7.84747 57.1823 7.84747C59.364 7.84747 61.2667 9.63674 61.2667 12.0395C61.2667 14.2633 59.364 16.2059 57.1823 16.2059Z" fill="white"/>
<path d="M71.9219 5.98131C70.1968 5.98131 68.7 6.62034 67.6092 7.64278V1.07358V1.04802V1.02246V0.920212C67.5584 0.434551 67.1272 0.0255737 66.6198 0.0255737C66.1124 0.0255737 65.7065 0.40899 65.6304 0.920212V17.3049C65.6557 17.8417 66.087 18.2762 66.6198 18.2762C67.1525 18.2762 67.5838 17.8417 67.6092 17.3049V17.2793V17.2538V16.5125C68.6747 17.4838 70.1461 18.0973 71.9219 18.0973C75.6512 18.0973 78.1374 15.3622 78.1374 12.0649C78.1374 8.79303 75.5497 5.98131 71.9219 5.98131ZM71.9219 16.2058C69.7148 16.2058 67.8375 14.2631 67.8375 12.0393C67.8375 9.63655 69.7402 7.84727 71.9219 7.84727C74.1037 7.84727 76.0064 9.63655 76.0064 12.0393C76.0318 14.2631 74.1291 16.2058 71.9219 16.2058Z" fill="white"/>
<path d="M49.1653 21.0114C49.1653 20.9603 49.1907 20.9347 49.1907 20.8836C49.1907 20.2957 48.7087 19.8101 48.1252 19.8101C47.5417 19.8101 47.0597 20.2957 47.0597 20.8836C47.0597 20.9347 47.0597 20.9603 47.085 21.0114H47.0597C47.0597 23.2352 45.157 25.1779 42.9752 25.1779C40.7935 25.1779 38.8908 23.2352 38.8908 21.0114H38.8654C38.8654 20.9603 38.8908 20.9347 38.8908 20.8836C38.8908 20.2957 38.4088 19.8101 37.8253 19.8101C37.2418 19.8101 36.7598 20.2957 36.7598 20.8836C36.7598 20.9347 36.7598 20.9603 36.7851 21.0114H36.7598C36.7598 24.3088 39.2206 27.0439 42.9499 27.0439C46.7045 27.0439 49.1653 24.3344 49.1653 21.0114Z" fill="white"/>
<path d="M144.579 12.1417C144.579 8.8699 141.992 6.08374 138.364 6.08374C134.761 6.08374 132.148 8.8699 132.148 12.1417C132.148 15.4391 134.609 18.1741 138.364 18.1741C140.089 18.1741 141.535 17.6118 142.575 16.666V17.2539C142.575 17.2539 142.575 17.2539 142.575 17.2795C142.575 17.3051 142.575 17.2795 142.575 17.3051C142.575 17.8418 143.032 18.2764 143.565 18.2764C144.097 18.2764 144.529 17.8418 144.554 17.3051C144.554 17.3051 144.554 17.3051 144.554 17.2795C144.554 17.2539 144.554 17.2795 144.554 17.2539V12.2184C144.579 12.1928 144.579 12.1673 144.579 12.1417ZM138.364 16.3082C136.157 16.3082 134.279 14.3655 134.279 12.1417C134.279 9.73898 136.182 7.9497 138.364 7.9497C140.546 7.9497 142.448 9.73898 142.448 12.1417C142.448 14.3655 140.571 16.3082 138.364 16.3082Z" fill="white"/>
<path d="M116.394 21.0625C116.419 20.9858 116.419 20.9092 116.419 20.8325C116.419 20.2446 115.937 19.7589 115.354 19.7589C114.77 19.7589 114.288 20.2446 114.288 20.8325C114.288 20.9092 114.288 20.9858 114.314 21.0625H114.288C114.288 23.2863 112.385 25.229 110.204 25.229C108.022 25.229 106.119 23.2863 106.119 21.0625H106.094C106.119 20.9858 106.119 20.9092 106.119 20.8325C106.119 20.2446 105.637 19.7589 105.054 19.7589C104.47 19.7589 103.988 20.2446 103.988 20.8325C103.988 20.9092 103.988 20.9858 104.014 21.0625C104.014 24.3599 106.474 27.0949 110.229 27.0949C113.958 27.0949 116.445 24.3599 116.445 21.0625H116.394Z" fill="white"/>
<path d="M48.3028 7.84742C48.7848 7.7963 49.1653 7.41288 49.1653 6.92722C49.1653 6.44156 48.7848 6.03258 48.3028 6.00702L42.1127 6.05814C38.9669 6.46712 36.7852 9.07435 36.7852 12.0394C36.7852 15.3368 39.246 18.0719 42.9752 18.0719C46.7045 18.0719 49.1653 15.3368 49.1653 12.0394C49.1653 10.4291 48.5311 8.94655 47.4656 7.84742H48.3028ZM47.0597 12.0394C47.0597 14.2633 45.157 16.2059 42.9752 16.2059C40.7935 16.2059 38.8908 14.2633 38.8908 12.0394C38.8908 9.6367 40.7935 7.84742 42.9752 7.84742C45.157 7.84742 47.0597 9.6367 47.0597 12.0394Z" fill="white"/>
<path d="M116.648 7.05503C116.648 6.5438 116.242 6.13483 115.734 6.13483H109.519C106.272 6.46712 104.014 9.09991 104.014 12.1417C104.014 15.4391 106.474 18.1741 110.229 18.1741C113.958 18.1741 116.445 15.4391 116.445 12.1417C116.445 10.5313 115.81 9.07435 114.745 8.00079H115.76C116.242 8.00079 116.648 7.56625 116.648 7.05503ZM114.314 12.1417C114.314 14.3655 112.411 16.3081 110.229 16.3081C108.047 16.3081 106.145 14.3655 106.145 12.1417C106.145 9.73894 108.047 7.94967 110.229 7.94967C112.411 7.94967 114.314 9.73894 114.314 12.1417Z" fill="white"/>
<path d="M101.502 7.02948C101.502 6.46713 101.046 6.03259 100.513 6.03259C99.9801 6.03259 99.5234 6.49269 99.5234 7.02948C99.5234 7.02948 99.5234 7.02948 99.5234 7.05504V17.2795C99.5234 17.2795 99.5234 17.2795 99.5234 17.305C99.5234 17.3306 99.5234 17.305 99.5234 17.3306C99.5234 17.8674 99.9801 18.3019 100.513 18.3019C101.046 18.3019 101.502 17.8674 101.502 17.3306C101.502 17.3306 101.502 17.3306 101.502 17.305C101.502 17.2795 101.502 17.305 101.502 17.2795V7.02948Z" fill="white"/>
<path d="M121.468 7.08062C121.468 6.51828 121.011 6.08374 120.479 6.08374C119.946 6.08374 119.489 6.54384 119.489 7.08062C119.489 7.08062 119.489 7.08062 119.489 7.10618V17.2539C119.489 17.2539 119.489 17.2539 119.489 17.2795C119.489 17.3051 119.489 17.2795 119.489 17.3051C119.489 17.8418 119.946 18.2764 120.479 18.2764C121.011 18.2764 121.468 17.8418 121.468 17.3051C121.468 17.3051 121.468 17.3051 121.468 17.2795C121.468 17.2539 121.468 17.2795 121.468 17.2539V7.08062C121.468 7.10618 121.468 7.10618 121.468 7.08062Z" fill="white"/>
<path d="M96.3522 1.02246C96.3522 0.460112 95.8956 0.0255737 95.3628 0.0255737C94.8301 0.0255737 94.3734 0.485674 94.3734 1.02246C94.3734 1.02246 94.3734 1.02246 94.3734 1.04802V7.74503C93.2826 6.72258 91.7858 6.08355 90.0607 6.08355C86.4582 6.08355 83.8452 8.86971 83.8452 12.1415C83.8452 15.4389 86.306 18.174 90.0607 18.174C91.8112 18.174 93.3079 17.5605 94.3734 16.5892V17.2538C94.3734 17.2538 94.3734 17.2538 94.3734 17.2793C94.3734 17.3049 94.3734 17.2793 94.3734 17.3049V17.4071C94.4242 17.8928 94.8555 18.3018 95.3628 18.3018C95.8702 18.3018 96.2761 17.9183 96.3522 17.4071V17.3049C96.3522 17.3049 96.3522 17.3049 96.3522 17.2793C96.3522 17.2538 96.3522 17.2793 96.3522 17.2538V1.02246C96.3522 1.04802 96.3522 1.04802 96.3522 1.02246ZM90.0607 16.308C87.8536 16.308 85.9762 14.3654 85.9762 12.1415C85.9762 9.73879 87.8789 7.94952 90.0607 7.94952C92.2424 7.94952 94.1451 9.73879 94.1451 12.1415C94.1705 14.3398 92.2678 16.308 90.0607 16.308Z" fill="white"/>
<path d="M130.524 16.308H130.448H129.611C128.85 16.308 128.647 16.0779 128.647 15.4645V8.00063H130.372H130.398H130.423H130.448C130.905 7.97506 131.26 7.59165 131.26 7.13155C131.26 6.67145 130.905 6.28803 130.448 6.26247H130.423C130.423 6.26247 130.398 6.26247 130.372 6.26247C130.347 6.26247 130.347 6.26247 130.322 6.26247H128.596V0.996883V1.07357C128.596 0.511222 128.14 0 127.607 0C127.074 0 126.618 0.511222 126.618 1.07357V1.09913V1.02244V6.28803H125.146C125.146 6.28803 125.121 6.28803 125.095 6.28803C125.07 6.28803 125.07 6.28803 125.045 6.28803H125.019C124.563 6.31359 124.233 6.69701 124.233 7.15711C124.233 7.61721 124.588 8.00063 125.019 8.02619H125.07H125.095H125.121H126.592V15.6945C126.592 17.4582 127.201 18.1739 129.231 18.1739C129.637 18.1739 130.042 18.1739 130.322 18.1484C130.347 18.1484 130.347 18.1484 130.372 18.1484C130.88 18.1484 131.286 17.7394 131.286 17.2282C131.362 16.7425 131.006 16.3335 130.524 16.308Z" fill="white"/>
<path d="M150.414 16.308H149.831C149.197 16.308 148.562 15.8734 148.562 14.5698V1.04801V1.02244V0.996883V0.945761C148.537 0.434539 148.106 0 147.573 0C147.04 0 146.609 0.408978 146.583 0.945761V14.6976C146.583 17.1259 147.801 18.1484 149.628 18.1484H150.44C150.947 18.1484 151.353 17.7394 151.353 17.2282C151.328 16.717 150.922 16.308 150.414 16.308Z" fill="white"/>
<path d="M55.1528 24.8708C55.1528 23.6439 56.0408 22.647 57.2585 22.647C57.9688 22.647 58.4001 22.877 58.806 23.2349C58.8314 23.2604 58.8567 23.3116 58.8567 23.3627C58.8567 23.4394 58.7806 23.5161 58.7045 23.5161C58.6538 23.5161 58.6284 23.4905 58.603 23.4649C58.2479 23.1326 57.842 22.9026 57.2585 22.9026C56.2437 22.9026 55.4826 23.7461 55.4826 24.8197V24.8452C55.4826 25.9188 56.2691 26.7623 57.2838 26.7623C57.8673 26.7623 58.2732 26.5578 58.6538 26.1744C58.6792 26.1488 58.7045 26.1233 58.7553 26.1233C58.8314 26.1233 58.9075 26.2 58.9075 26.2766C58.9075 26.3278 58.8821 26.3533 58.8567 26.3789C58.4255 26.7879 57.9688 27.0435 57.2585 27.0435C56.0408 27.069 55.1528 26.0977 55.1528 24.8708Z" fill="white"/>
<path d="M65.0723 22.8515C65.0723 22.7748 65.1484 22.6981 65.2245 22.6981C65.3006 22.6981 65.3767 22.7748 65.3767 22.8515V24.6919H68.0912V22.8515C68.0912 22.7748 68.1673 22.6981 68.2434 22.6981C68.3195 22.6981 68.3956 22.7748 68.3956 22.8515V26.839C68.3956 26.9157 68.3195 26.9924 68.2434 26.9924C68.1673 26.9924 68.0912 26.9157 68.0912 26.839V24.9731H65.3767V26.839C65.3767 26.9157 65.3006 26.9924 65.2245 26.9924C65.1484 26.9924 65.0723 26.9157 65.0723 26.839V22.8515Z" fill="white"/>
<path d="M75.499 22.8515C75.499 22.7748 75.5751 22.6981 75.6512 22.6981C75.7272 22.6981 75.8033 22.7748 75.8033 22.8515V26.839C75.8033 26.9157 75.7272 26.9924 75.6512 26.9924C75.5751 26.9924 75.499 26.9157 75.499 26.839V22.8515Z" fill="white"/>
<path d="M83.4395 22.8515C83.4395 22.7748 83.5156 22.6981 83.5917 22.6981C83.6678 22.6981 83.7439 22.7748 83.7439 22.8515V26.6857H86.1032C86.1793 26.6857 86.2554 26.7623 86.2554 26.839C86.2554 26.9157 86.1793 26.9924 86.1032 26.9924H83.5917C83.5156 26.9924 83.4395 26.9157 83.4395 26.839V22.8515Z" fill="white"/>
<path d="M92.9531 26.839V22.8771C92.9531 22.8004 93.0292 22.7237 93.1053 22.7237H95.8452C95.9213 22.7237 95.9974 22.8004 95.9974 22.8771C95.9974 22.9537 95.9213 23.0304 95.8452 23.0304H93.2829V24.7175H95.5915C95.6676 24.7175 95.7437 24.7941 95.7437 24.8708C95.7437 24.9475 95.6676 25.0242 95.5915 25.0242H93.2829V26.7368H95.896C95.9721 26.7368 96.0482 26.8135 96.0482 26.8902C96.0482 26.9668 95.9721 27.0435 95.896 27.0435H93.1307C93.0292 26.9924 92.9531 26.9157 92.9531 26.839Z" fill="white"/>
<path d="M26.5108 19.9379C27.0942 19.9379 27.5763 20.398 27.5763 20.9603C27.5763 21.5227 27.0942 22.0083 26.5108 22.0083C25.9273 22.0083 25.4452 21.5482 25.4452 20.9859C25.4199 20.4235 25.9273 19.9379 26.5108 19.9379Z" fill="white"/>
<path d="M22.8068 21.8549H18.1135C17.6315 21.8549 17.251 21.4715 17.251 20.9858C17.251 20.5002 17.6315 20.1168 18.1135 20.1168H22.8322C23.3142 20.1168 23.6948 20.5002 23.6948 20.9858C23.6948 21.4715 23.2889 21.8549 22.8068 21.8549Z" fill="white"/>
<path d="M14.6634 21.8549H0.887944C0.405929 21.8549 0.0253906 21.4715 0.0253906 20.9858C0.0253906 20.5002 0.405929 20.1168 0.887944 20.1168H14.6888C15.1708 20.1168 15.5514 20.5002 15.5514 20.9858C15.526 21.4715 15.1454 21.8549 14.6634 21.8549Z" fill="white"/>
<path d="M1.19244 12.0136C0.583578 12.0136 0.101562 11.5535 0.101562 10.9912C0.101562 10.4288 0.608947 9.94318 1.21781 9.94318C1.82667 9.94318 2.30869 10.4033 2.30869 10.9656C2.30869 11.5535 1.8013 12.0136 1.19244 12.0136Z" fill="white"/>
<path d="M8.95541 11.8602H4.99781C4.51579 11.8602 4.13525 11.4768 4.13525 10.9911C4.13525 10.5055 4.51579 10.1221 4.99781 10.1221H8.95541C9.43742 10.1221 9.81796 10.5055 9.81796 10.9911C9.84333 11.4768 9.43742 11.8602 8.95541 11.8602Z" fill="white"/>
<path d="M26.7645 11.8602H12.4309C11.9489 11.8602 11.5684 11.4768 11.5684 10.9911C11.5684 10.5055 11.9489 10.1221 12.4309 10.1221H26.7645C27.2465 10.1221 27.6271 10.5055 27.6271 10.9911C27.6271 11.4768 27.2465 11.8602 26.7645 11.8602Z" fill="white"/>
<path d="M1.09088 2.1216C0.482015 2.14716 0 1.68706 0 1.09915C0 0.511247 0.507384 0.0511475 1.11625 0.0511475C1.72511 0.0511475 2.20712 0.511247 2.20712 1.07359C2.20712 1.6615 1.69974 2.1216 1.09088 2.1216Z" fill="white"/>
<path d="M8.24492 1.99376H4.82007C4.33806 1.99376 3.95752 1.61034 3.95752 1.12468C3.95752 0.639019 4.33806 0.230042 4.82007 0.230042H8.24492C8.72693 0.230042 9.10747 0.613458 9.10747 1.09912C9.10747 1.58478 8.72693 1.99376 8.24492 1.99376Z" fill="white"/>
<path d="M26.7391 1.99376H11.7712C11.2892 1.99376 10.9087 1.61034 10.9087 1.12468C10.9087 0.639019 11.2892 0.230042 11.7712 0.230042H26.7391C27.2211 0.230042 27.6016 0.613458 27.6016 1.09912C27.6016 1.58478 27.2211 1.99376 26.7391 1.99376Z" fill="white"/>
<path d="M26.4854 4.95898C27.0689 4.95898 27.5509 5.41908 27.5509 5.98143C27.5509 6.54377 27.0689 7.02943 26.4854 7.02943C25.9019 7.02943 25.4199 6.56933 25.4199 6.00699C25.4199 5.41908 25.9019 4.95898 26.4854 4.95898Z" fill="white"/>
<path d="M14.6888 6.87609H0.887944C0.405929 6.87609 0.0253906 6.49268 0.0253906 6.00702C0.0253906 5.52136 0.405929 5.13794 0.887944 5.13794H14.6888C15.1708 5.13794 15.5514 5.52136 15.5514 6.00702C15.5514 6.46712 15.1708 6.87609 14.6888 6.87609Z" fill="white"/>
<path d="M22.7815 6.87609H18.1389C17.6569 6.87609 17.2764 6.49268 17.2764 6.00702C17.2764 5.52136 17.6569 5.13794 18.1389 5.13794H22.7815C23.2635 5.13794 23.644 5.52136 23.644 6.00702C23.644 6.46712 23.2635 6.87609 22.7815 6.87609Z" fill="white"/>
<path d="M18.6466 14.9533C19.2047 14.9533 19.6614 15.4134 19.6614 15.9758C19.6614 16.5381 19.2047 17.0238 18.6212 17.0238C18.0631 17.0238 17.6064 16.5637 17.6064 16.0013C17.6064 15.4134 18.0631 14.9533 18.6466 14.9533Z" fill="white"/>
<path d="M14.9679 16.8704H0.887944C0.405929 16.8704 0.0253906 16.4869 0.0253906 16.0013C0.0253906 15.5156 0.405929 15.1322 0.887944 15.1322H14.9679C15.4499 15.1322 15.8304 15.5156 15.8304 16.0013C15.8304 16.4614 15.4245 16.8704 14.9679 16.8704Z" fill="white"/>
<path d="M26.6885 16.8704H22.325C21.8429 16.8704 21.4624 16.4869 21.4624 16.0013C21.4624 15.5156 21.8429 15.1322 22.325 15.1322H26.6885C27.1705 15.1322 27.551 15.5156 27.551 16.0013C27.551 16.4614 27.1705 16.8704 26.6885 16.8704Z" fill="white"/>
<path d="M1.09088 27.018C0.482015 27.018 0 26.5579 0 25.9956C0 25.4332 0.507384 24.9476 1.11625 24.9476C1.72511 24.9476 2.20712 25.4077 2.20712 25.97C2.20712 26.5324 1.69974 27.018 1.09088 27.018Z" fill="white"/>
<path d="M8.72693 26.8391H4.82007C4.33806 26.8391 3.95752 26.4557 3.95752 25.97C3.95752 25.4844 4.33806 25.101 4.82007 25.101H8.72693C9.20895 25.101 9.58949 25.4844 9.58949 25.97C9.58949 26.4557 9.20895 26.8391 8.72693 26.8391Z" fill="white"/>
<path d="M26.6883 26.8391H12.2786C11.7966 26.8391 11.416 26.4557 11.416 25.97C11.416 25.4844 11.7966 25.101 12.2786 25.101H26.6883C27.1703 25.101 27.5508 25.4844 27.5508 25.97C27.5508 26.4557 27.1703 26.8391 26.6883 26.8391Z" fill="white"/>
</g>
</g>
<defs>
<clipPath id="clip0_1141_21181">
<rect width="152" height="27.1203" fill="white"/>
</clipPath>
<clipPath id="clip1_1141_21181">
<rect width="152" height="27.1203" fill="white"/>
</clipPath>
</defs>
</svg>
